# xmcd
#
# Track frame offsets:
#	150
#	17670
#	30627
#	43146
#	64915
#	77701
#	92431
#	108028
#	126091
#	139946
#	153950
#	174146
#	191541
#	206710
#	219128
#
# Disc length: 3079 seconds
#
# Revision: 1
# Processed by: cddbd v1.5.2PL0 Copyright (c) Steve Scherf et al.
# Submitted via: audiograbber 1.83.01
#
DISCID=bd0c050f
DTITLE=IMELDA MAY - Mayhem
DYEAR=2010
DGENRE=Blues/Jazz
TTITLE0=Pulling the Rug
TTITLE1=Psycho
TTITLE2=Mayhem
TTITLE3=Kentish Town Waltz
TTITLE4=All for you
TTITLE5=Eternity
TTITLE6=Inside out
TTITLE7=Proud and Humble
TTITLE8=Sneaky Freak
TTITLE9=Bury my Troubles
TTITLE10=Too sad to cry
TTITLE11=I'm alive
TTITLE12=Let me out
TTITLE13=Tainted Love
TTITLE14=Johnny got a Boom Boom
EXTD=
EXTT0=
EXTT1=
EXTT2=
EXTT3=
EXTT4=
EXTT5=
EXTT6=
EXTT7=
EXTT8=
EXTT9=
EXTT10=
EXTT11=
EXTT12=
EXTT13=
EXTT14=
PLAYORDER=
